:SAMPLES-PER-SECOND 30
:FULLY-SPECIFIED
:DEGREES
583
root  -4.70039 41.0025 0.158476 45.6812 -88.5607 -43.2653
RightUpLeg  3.85449 -1.04362 -0.50184
RightLeg  -6.49477 -21.1055 3.2306
RightFoot  1.66087 -0.313005 2.87442
RightToes  -3.1126e-008 1.75238e-005 3.56266e-009
Spine  6.72893 0.838172 -2.90274
Spine1  -11.3518 0.519142 3.05126
HEad  3.83374 -6.18746 0.240572
LeftShoulder1  -0.177862 4.33044 -14.5619
LeftArm  -56.1906 -0.284315 -29.9101
LeftForeArm  71.9638 -79.027 -60.3284
LeftHand  -0.645726 -3.92342 8.32012
RightShoulder  0.183801 -2.61303 14.2076
RightArm  -25.9215 -37.0322 39.8928
RightForeArm  38.1969 70.8374 29.5401
RightHand  -0.52294 7.74581 -4.97877
LeftUpLeg  3.2271 1.48735 3.61889
LeftLeg  -4.41248 16.2145 -1.0254
LeftFoot  0.27397 0.384195 -3.69562
LeftToes  4.78049e-008 1.46235e-008 1.34219e-009
584
root  -4.67412 41.0035 0.134347 38.6984 -88.2242 -36.4318
RightUpLeg  4.07337 -1.05146 -0.408333
RightLeg  -6.63961 -21.4728 3.39192
RightFoot  1.67294 -0.303107 2.73454
RightToes  -3.1126e-008 1.75238e-005 3.56266e-009
Spine  6.99837 0.690123 -2.88117
Spine1  -11.4305 0.385294 2.81791
HEad  4.10139 -6.28712 0.543976
LeftShoulder1  -0.173553 4.32064 -14.2885
LeftArm  -55.9568 0.425694 -30.0635
LeftForeArm  73.5015 -79.2198 -62.6376
LeftHand  -0.672153 -3.57902 8.95392
RightShoulder  0.178811 -2.63227 14.0526
RightArm  -26.3679 -36.6872 40.6224
RightForeArm  37.8653 71.0461 30.0669
RightHand  -0.5328 7.51919 -5.14271
LeftUpLeg  3.21213 1.5605 3.73711
LeftLeg  -4.25804 15.8171 -0.935417
LeftFoot  0.28567 0.382045 -3.68138
LeftToes  4.78049e-008 1.46235e-008 1.34219e-009
585
root  -4.63995 41.0091 0.106615 32.8867 -88.0815 -30.6205
RightUpLeg  4.01364 -1.08412 -0.438054
RightLeg  -6.59354 -21.6509 3.3906
RightFoot  1.68853 -0.301494 2.72284
RightToes  -3.1126e-008 1.75238e-005 3.56266e-009
Spine  7.01565 0.566943 -3.47784
Spine1  -11.4265 0.21686 3.29763
HEad  4.5576 -6.4167 0.60795
LeftShoulder1  -0.184035 4.37804 -14.0708
LeftArm  -55.469 1.49376 -30.7889
LeftForeArm  77.6336 -79.5743 -66.8815
LeftHand  -0.639816 -3.91625 8.24239
RightShoulder  0.10199 -2.98868 13.7024
RightArm  -26.0244 -35.7712 41.8889
RightForeArm  36.7251 70.7657 29.6713
RightHand  -0.510039 7.76791 -4.85755
LeftUpLeg  3.16716 1.53618 3.72206
LeftLeg  -4.36128 15.6645 -0.972567
LeftFoot  0.408495 0.387873 -3.79884
LeftToes  4.78049e-008 1.46235e-008 1.34219e-009
586
root  -4.6097 41.0116 0.0966889 33.7202 -88.0829 -31.4405
RightUpLeg  3.945 -1.0368 -0.39104
RightLeg  -6.58563 -21.6666 3.36594
RightFoot  1.72826 -0.302393 2.74975
RightToes  -3.1126e-008 1.75238e-005 3.56266e-009
Spine  6.95178 0.604251 -4.13996
Spine1  -11.3561 0.171137 4.16092
HEad  4.82179 -6.43848 -0.242624
LeftShoulder1  -0.1196 4.06401 -14.3828
LeftArm  -54.4045 3.65707 -31.3342
LeftForeArm  83.2229 -79.9478 -73.9245
LeftHand  -0.734553 -4.0207 9.32901
RightShoulder  0.132136 -2.84575 13.7626
RightArm  -25.8198 -35.1644 42.483
RightForeArm  35.8001 69.9777 28.2158
RightHand  -0.495825 8.02974 -4.65101
LeftUpLeg  3.09514 1.56594 3.76372
LeftLeg  -4.34282 15.6654 -0.982913
LeftFoot  0.460032 0.387079 -3.81661
LeftToes  4.78049e-008 1.46235e-008 1.34219e-009
587
root  -4.5762 41.0106 0.100088 36.6279 -88.1632 -34.356
RightUpLeg  3.89477 -0.981751 -0.343974
RightLeg  -6.60519 -21.6401 3.35979
RightFoot  1.75587 -0.298552 2.71047
RightToes  -3.1126e-008 1.75238e-005 3.56266e-009
Spine  6.9596 0.657858 -4.7203
Spine1  -11.2551 0.144801 4.94846
HEad  4.76781 -6.38419 -0.567567
LeftShoulder1  -0.114659 4.03146 -14.8094
LeftArm  -53.5189 6.06902 -32.3435
LeftForeArm  89.732 -80.2131 -79.7622
LeftHand  -0.721212 -4.86731 8.43774
RightShoulder  0.19954 -2.54699 14.3889
RightArm  -26.1944 -34.3876 42.4702
RightForeArm  33.5181 68.3626 25.7351
RightHand  -0.487105 7.92724 -4.60807
LeftUpLeg  3.04455 1.57181 3.79352
LeftLeg  -4.28327 15.6455 -0.954658
LeftFoot  0.482159 0.377427 -3.69774
LeftToes  4.78049e-008 1.46235e-008 1.34219e-009
588
root  -4.53761 41.0085 0.108923 41.0075 -88.4183 -38.6997
RightUpLeg  3.70007 -0.904851 -0.362007
RightLeg  -6.46056 -21.4798 3.19062
RightFoot  1.76401 -0.296403 2.70182
RightToes  -3.1126e-008 1.75238e-005 3.56266e-009
Spine  7.18045 0.642075 -5.25347
Spine1  -11.4878 0.0743003 5.53806
HEad  4.7025 -6.60697 -0.422243
LeftShoulder1  -0.110771 4.00952 -14.9932
LeftArm  -52.0949 9.83308 -32.863
LeftForeArm  92.9247 -80.2996 -82.854
LeftHand  -0.560148 -4.82676 6.68738
RightShoulder  0.298846 -2.11309 14.9687
RightArm  -27.0882 -33.5732 42.1483
RightForeArm  30.7708 65.677 22.3387
RightHand  -0.491106 7.72334 -4.70612
LeftUpLeg  3.00897 1.56009 3.74125
LeftLeg  -4.32529 15.8849 -1.03197
LeftFoot  0.503351 0.3753 -3.69521
LeftToes  4.78049e-008 1.46235e-008 1.34219e-009
589
root  -4.50873 41.0057 0.140878 54.0807 -88.739 -51.922
RightUpLeg  3.8452 -0.866064 -0.398817
RightLeg  -6.6139 -21.1106 3.13709
RightFoot  1.86804 -0.298092 2.74108
RightToes  -3.1126e-008 1.75238e-005 3.56266e-009
Spine  7.46961 0.748681 -5.03645
Spine1  -11.4972 0.194853 5.23028
HEad  4.60947 -7.51462 -0.335317
LeftShoulder1  -0.0912391 3.92221 -14.9625
LeftArm  -50.7788 13.5795 -33.4202
LeftForeArm  87.8885 -80.1472 -78.1188
LeftHand  -0.695558 -4.03251 8.82463
RightShoulder  0.316776 -2.04677 15.2219
RightArm  -28.2664 -32.7892 41.4006
RightForeArm  28.5336 62.1608 18.8513
RightHand  -0.459198 7.98073 -4.34882
LeftUpLeg  3.17443 1.59204 3.67891
LeftLeg  -4.28271 16.3334 -1.08333
LeftFoot  0.432562 0.372579 -3.68048
LeftToes  4.78049e-008 1.46235e-008 1.34219e-009
590
root  -4.47605 41.0031 0.193249 79.0207 -88.9428 -76.8942
RightUpLeg  3.80343 -0.745078 -0.377892
RightLeg  -6.6919 -20.7592 3.01852
RightFoot  1.98644 -0.296267 2.69816
RightToes  -3.1126e-008 1.75238e-005 3.56266e-009
Spine  7.58422 0.888167 -4.58642
Spine1  -11.3232 0.362773 4.82084
HEad  4.01608 -7.52763 -0.280842
LeftShoulder1  -0.022628 3.60647 -15.2169
LeftArm  -49.7162 17.4464 -33.0818
LeftForeArm  79.2827 -79.6693 -67.1562
LeftHand  -0.68228 -4.52889 8.27147
RightShoulder  0.275012 -2.22129 14.9549
RightArm  -29.0969 -31.8433 39.8962
RightForeArm  26.1445 58.1924 15.9293
RightHand  -0.434242 7.37973 -4.30119
LeftUpLeg  3.22198 1.57807 3.60903
LeftLeg  -4.26278 16.9801 -1.10597
LeftFoot  0.36733 0.369675 -3.65687
LeftToes  4.78049e-008 1.46235e-008 1.34219e-009
